<svg viewBox="0 0 21.5226 21.3549" xmlns="http://www.w3.org/2000/svg" xmlns:xlink="http://www.w3.org/1999/xlink" width="21.522644" height="21.354935" fill="none" customFrame="#000000">
	<path id="Vector" d="M8.57942 1.70501L7.9079 2.03901L7.9086 2.04042L8.57942 1.70501ZM9.75275 4.05167L10.4263 3.72176L10.4236 3.71626L9.75275 4.05167ZM10.6994 4.75167L10.5761 5.49147L10.5765 5.49153L10.6994 4.75167ZM12.8261 5.10501L12.9494 4.36521L12.949 4.36515L12.8261 5.10501ZM13.5261 7.29167L12.9976 6.75953L12.9958 6.76134L13.5261 7.29167ZM11.5261 10.1517L10.7942 10.3157L10.7954 10.3207L11.5261 10.1517ZM11.9994 12.1983L12.7303 12.0299L12.7301 12.0293L11.9994 12.1983ZM10.0794 13.5983L9.69736 14.2437L9.69797 14.2441L10.0794 13.5983ZM8.08609 12.4183L7.70373 13.0636L7.70403 13.0637L8.08609 12.4183ZM6.76609 12.4183L6.38891 11.7701L6.38403 11.7729L6.76609 12.4183ZM4.77275 13.5983L4.3907 12.9529L4.38999 12.9534L4.77275 13.5983ZM2.85275 12.1983L3.58344 12.3674L3.58347 12.3673L2.85275 12.1983ZM3.32609 10.1517L4.05682 10.3207L4.05793 10.3157L3.32609 10.1517ZM2.97942 8.94501L3.50975 8.41468L3.50975 8.41468L2.97942 8.94501ZM1.32609 7.29167L0.795757 7.822L0.795757 7.822L1.32609 7.29167ZM2.02609 5.10501L1.90316 4.36515L1.90279 4.36521L2.02609 5.10501ZM4.15275 4.75167L4.27568 5.49154L4.27831 5.49109L4.15275 4.75167ZM5.09275 4.05167L4.42191 3.71625L4.41921 3.72177L5.09275 4.05167ZM6.26609 1.70501L5.59597 1.36819L5.59527 1.3696L6.26609 1.70501ZM7.9086 2.04042L9.08193 4.38708L10.4236 3.71626L9.25024 1.3696L7.9086 2.04042ZM9.07921 4.38158C9.22649 4.68228 9.46719 4.92912 9.70579 5.10517C9.94485 5.28157 10.2498 5.43708 10.5761 5.49147L10.8227 4.01188C10.7891 4.00627 10.7007 3.97511 10.5964 3.89818C10.4917 3.8209 10.439 3.74773 10.4263 3.72177L9.07921 4.38158ZM10.5765 5.49153L12.7032 5.84487L12.949 4.36515L10.8223 4.01182L10.5765 5.49153ZM12.7028 5.8448C13.2534 5.93658 13.3357 6.13589 13.3396 6.14785C13.3429 6.15813 13.3938 6.36604 12.9976 6.75954L14.0546 7.82381C14.6384 7.24398 15.0193 6.47189 14.7676 5.68883C14.5165 4.90746 13.7587 4.5001 12.9494 4.36521L12.7028 5.8448ZM12.9958 6.76134L11.3424 8.41468L12.4031 9.47534L14.0564 7.822L12.9958 6.76134ZM11.3424 8.41468C11.09 8.66707 10.9285 8.99568 10.8409 9.30194C10.7531 9.60853 10.7169 9.97082 10.7942 10.3157L12.2579 9.98764C12.2486 9.94586 12.2457 9.84482 12.283 9.71475C12.3203 9.58433 12.3755 9.50294 12.4031 9.47534L11.3424 8.41468ZM10.7954 10.3207L11.2687 12.3673L12.7301 12.0293L12.2568 9.98268L10.7954 10.3207ZM11.2686 12.3668C11.3471 12.7075 11.3472 12.9417 11.321 13.0833C11.296 13.2184 11.2569 13.2306 11.2751 13.2173C11.2931 13.2042 11.2686 13.238 11.1308 13.2205C10.9867 13.2023 10.7626 13.1308 10.4609 12.9526L9.69797 14.2441C10.4701 14.7002 11.424 14.965 12.1587 14.4294C12.8948 13.8928 12.9315 12.9032 12.7303 12.0299L11.2686 12.3668ZM10.4615 12.9529L8.46814 11.7729L7.70403 13.0637L9.69736 14.2437L10.4615 12.9529ZM8.46844 11.7731C8.14449 11.5812 7.76522 11.5083 7.42859 11.5083C7.09127 11.5083 6.71321 11.5814 6.38892 11.7701L7.14326 13.0666C7.18563 13.042 7.28757 13.0083 7.42859 13.0083C7.57029 13.0083 7.66768 13.0422 7.70373 13.0636L8.46844 11.7731ZM6.38403 11.7729L4.3907 12.9529L5.15481 14.2437L7.14814 13.0637L6.38403 11.7729ZM4.38999 12.9534C4.09086 13.1309 3.86832 13.2016 3.72542 13.2194C3.58896 13.2365 3.56346 13.203 3.57983 13.215C3.59631 13.227 3.55697 13.2133 3.53186 13.079C3.50553 12.9381 3.50522 12.7055 3.58344 12.3674L2.12206 12.0293C1.91982 12.9032 1.96067 13.8904 2.69568 14.4267C3.4301 14.9626 4.38307 14.7017 5.15552 14.2433L4.38999 12.9534ZM3.58347 12.3673L4.0568 10.3207L2.59537 9.98268L2.12204 12.0293L3.58347 12.3673ZM4.05793 10.3157C4.13523 9.97082 4.09906 9.60853 4.01129 9.30194C3.92362 8.99568 3.76214 8.66707 3.50975 8.41468L2.44909 9.47534C2.4767 9.50294 2.53188 9.58433 2.56921 9.71475C2.60645 9.84482 2.60361 9.94586 2.59424 9.98764L4.05793 10.3157ZM3.50975 8.41468L1.85642 6.76134L0.795757 7.822L2.44909 9.47534L3.50975 8.41468ZM1.85642 6.76134C1.46275 6.36768 1.51169 6.15854 1.51554 6.14649C1.51917 6.13514 1.59949 5.93645 2.14939 5.8448L1.90279 4.36521C1.09268 4.50023 0.33634 4.90821 0.0866295 5.6902C-0.162854 6.47147 0.216086 7.24233 0.795757 7.822L1.85642 6.76134ZM2.14901 5.84487L4.27568 5.49153L4.02983 4.01182L1.90316 4.36515L2.14901 5.84487ZM4.27831 5.49109C4.60209 5.43611 4.90508 5.27977 5.14195 5.10413C5.37875 4.92856 5.61913 4.68205 5.7663 4.38158L4.41921 3.72177C4.40638 3.74796 4.35342 3.82146 4.24855 3.89921C4.14376 3.97692 4.05675 4.00724 4.02719 4.01226L4.27831 5.49109ZM5.76357 4.38708L6.93691 2.04042L5.59527 1.3696L4.42193 3.71626L5.76357 4.38708ZM6.9362 2.04182C7.20201 1.51299 7.42219 1.50001 7.42525 1.50001C7.42697 1.50001 7.64544 1.51132 7.9079 2.03901L9.25094 1.371C8.88007 0.625358 8.26187 7.62939e-06 7.42525 7.62939e-06C6.58998 7.62939e-06 5.97017 0.623695 5.59597 1.36819L6.9362 2.04182Z" fill-rule="nonzero" stroke="rgb(255,172.997,72.675)" stroke-linecap="round" stroke-linejoin="round" stroke-width="1.5" />
</svg>
